<svg xmlns="http://www.w3.org/2000/svg" width="295" height="387" viewBox="0 0 295 387">
    <g fill="none" fill-rule="evenodd">
        <path stroke="#D00F3B" d="M30.695 302.48c-4.998-2.265-10.885-.049-13.15 4.95-2.264 4.998-.048 10.885 4.95 13.15 4.998 2.264 10.885.048 13.15-4.95 2.264-4.998.048-10.885-4.95-13.15z"/>
        <path fill="#D00F3B" d="M13.405 191.128a7.013 7.013 0 1 0-12.782 5.775 7.013 7.013 0 0 0 12.782-5.775M35.637 127.54a3.576 3.576 0 1 0 5.878 4.072 3.576 3.576 0 0 0-5.878-4.073M34.045 98.003c-3.864 6.05-2.091 14.087 3.96 17.952 6.05 3.864 14.087 2.091 17.95-3.96 3.865-6.049 2.09-14.085-3.959-17.95-6.05-3.864-14.089-2.091-17.951 3.958"/>
        <path fill="#000" d="M64.328 87.016l-2.619-2.446s6.588-17.69 19.854-26.003c0 0-16.659 17.169-17.235 28.449zm-12.033-3.148c4.05 16.377 14.328 11.085 23.31 5.854C97.529 73.63 87.8 46.205 87.8 46.205c-10.935 7.197-33.831 10.602-35.505 37.663z"/>
        <path fill="#E1E1D5" d="M292.955 14.499C289.679 6.017 281.444 0 271.805 0H68.108c-9.639 0-17.874 6.017-21.15 14.499a22.573 22.573 0 0 0-1.512 8.17v300.649c0 2.88.531 5.635 1.512 8.17 3.276 8.48 11.511 14.498 21.15 14.498h203.697c9.639 0 17.874-6.017 21.15-14.499a22.57 22.57 0 0 0 1.512-8.17V22.668a22.38 22.38 0 0 0-1.512-8.168"/>
        <path fill="#F7F8F3" d="M60.539 301.267h218.844V24.814H60.539z"/>
        <path fill="#E1E1D5" d="M80.627 199.584h173.07a2.954 2.954 0 0 0 0-5.91H80.627a2.954 2.954 0 0 0 0 5.91M80.627 221.211h56.988a2.954 2.954 0 0 0 0-5.91H80.627a2.954 2.954 0 0 0 0 5.91M80.627 243.763h56.988a2.954 2.954 0 0 0 0-5.91H80.627a2.954 2.954 0 0 0 0 5.91M115.394 113.957a2.842 2.842 0 0 1-2.844 2.846H81.248a2.85 2.85 0 0 1-2.853-2.846V82.651a2.85 2.85 0 0 1 2.853-2.846h31.302a2.842 2.842 0 0 1 2.844 2.846v31.306M161.438 114.78a2.842 2.842 0 0 1-2.844 2.846h-31.302a2.85 2.85 0 0 1-2.853-2.846V83.473a2.85 2.85 0 0 1 2.853-2.846h31.302a2.842 2.842 0 0 1 2.844 2.846v31.307M206.663 114.78a2.848 2.848 0 0 1-2.844 2.846h-31.311a2.842 2.842 0 0 1-2.844-2.846V83.473a2.842 2.842 0 0 1 2.844-2.846h31.311a2.848 2.848 0 0 1 2.844 2.846v31.307M114.575 160a2.848 2.848 0 0 1-2.844 2.846H80.42A2.848 2.848 0 0 1 77.576 160v-31.306a2.848 2.848 0 0 1 2.844-2.846h31.311a2.848 2.848 0 0 1 2.844 2.846V160M161.438 160a2.842 2.842 0 0 1-2.844 2.846h-31.302a2.85 2.85 0 0 1-2.853-2.846v-31.306a2.85 2.85 0 0 1 2.853-2.846h31.302a2.842 2.842 0 0 1 2.844 2.846V160M206.663 160a2.848 2.848 0 0 1-2.844 2.846h-31.311a2.842 2.842 0 0 1-2.844-2.846v-31.306a2.842 2.842 0 0 1 2.844-2.846h31.311a2.848 2.848 0 0 1 2.844 2.846V160M253.742 273.16a4.824 4.824 0 0 1-4.824 4.825h-70.47a4.819 4.819 0 0 1-4.824-4.824v-53.069a4.824 4.824 0 0 1 4.824-4.824h70.47a4.824 4.824 0 0 1 4.824 4.824v53.069"/>
        <path fill="#F2F1E7" d="M170.213 311.48c5.679 0 10.287 4.604 10.287 10.286 0 5.682-4.608 10.287-10.287 10.287a10.283 10.283 0 0 1-10.287-10.287 10.283 10.283 0 0 1 10.287-10.287"/>
        <path fill="#D00F3B" d="M194.738 49.551c.27 0 .522-.069.747-.209.225-.139.405-.325.531-.56.135-.235.198-.492.198-.77 0-.279-.063-.536-.198-.771a1.443 1.443 0 0 0-2.016-.557 1.535 1.535 0 0 0-.738 1.327c0 .28.063.536.198.77.135.236.315.423.54.562.225.138.477.208.738.208zm1.971 0l1.629 1.696-.495.516-1.629-1.704v-.27l-.09-.09a2.075 2.075 0 0 1-1.386.524c-.387 0-.747-.098-1.071-.295a2.17 2.17 0 0 1-.774-.795 2.21 2.21 0 0 1-.297-1.123c0-.404.099-.776.288-1.117.198-.341.45-.61.783-.808a2.037 2.037 0 0 1 1.071-.295c.396 0 .747.101 1.08.303.324.197.576.465.765.803a2.343 2.343 0 0 1 .144 1.897 1.954 1.954 0 0 1-.369.66l.081.097h.27v.001z"/>
        <path fill="#D00F3B" d="M203.639 48.176a6.011 6.011 0 0 0-6.012-6.011H83.651a6.011 6.011 0 0 0-6.012 6.011v.579a6.011 6.011 0 0 0 6.012 6.01h113.976a6.011 6.011 0 0 0 6.012-6.01v-.579zm.9.579a6.912 6.912 0 0 1-6.912 6.91H83.651a6.912 6.912 0 0 1-6.912-6.91v-.58a6.912 6.912 0 0 1 6.912-6.91h113.976a6.912 6.912 0 0 1 6.912 6.91v.58z"/>
        <path fill="#002C3E" d="M272.984 241.07c-.189 1.99-.414 4.141-1.224 5.997-1.062 2.462-5.481 1.266-6.588-.648-.333-3.262-.531-6.54-.639-9.812-.171-5.339-.288-11.31 1.152-16.645-.054 2.006.153 4.027.522 5.974.108.57.972.328.864-.24-.585-3.113-.756-6.47 0-9.58.117-.478-.603-.825-.819-.346-2.709 5.85-2.736 12.886-2.655 19.205.063 4.786.387 9.6 1.008 14.347v.05c.396 3.525.783 7.051 1.179 10.578.099.865.189 1.73.288 2.595a43.284 43.284 0 0 0-.99-2.43c-.432-.956-.936-1.874-1.458-2.785-.279-.505-1.062-.051-.774.454a36.318 36.318 0 0 1 3.087 7.225c-2.88.54-5.832.774-8.748.89-6.165.245-12.366-.405-18.279-2.176-1.521-.452-2.988-1.031-4.437-1.664-.351-.155-2.718-1.12-2.727-1.235-.072-.85-.036-1.702-.108-2.554-.684-8.776-.999-17.601-.999-26.408v-.004c1.8-2.877 3.699-5.756 4.338-9.104.108-.567-.81-.81-.918-.24-.639 3.363-2.817 6.245-4.527 9.138a.463.463 0 0 0-.072.251c-1.251 2.335-2.79 4.653-4.797 6.382-2.457 2.11-4.023-.343-4.941-2.561-.891-2.161-1.449-4.472-1.98-6.743-.513-2.19-.918-4.404-1.305-6.619a6.705 6.705 0 0 0-.153-.657c2.286-1.571 4.581-3.143 6.867-4.714l.108.46c.099.38.189.761.279 1.141a451.21 451.21 0 0 1-1.71 2.718c-.306.493.468.944.783.454.549-.885 1.107-1.77 1.665-2.655a.387.387 0 0 0 .189-.259c.243-1.05.513-2.09.792-3.129l.27-1.041a89.62 89.62 0 0 1 1.107-3.705c.918-2.869 1.935-6.316 4.14-8.487 1.485-1.464 5.553-1.073 7.488-1.154 2.619-.108 5.238-.168 7.857-.214-.09.561-.18 1.12-.189 1.702-.009.465.504.78.882.915 3.393 1.21 7.794.63 11.331.423.225-.014.468-.196.45-.45-.018-.196-.036-.391-.045-.586 3.735 1.363 7.497 2.89 10.746 5.22 1.332.953 2.853 2.294 3.159 3.987.72 4.015.711 8.268.846 12.332.171 5.459.207 10.962-.315 16.406zm-5.607 50.483c-1.17 12.42-.927 25.06.981 37.392 2.241 14.537.288 29.496-2.664 43.855a.586.586 0 0 0-.225-.008l-5.427 1.003c-2.34-22.161-4.689-44.323-7.029-66.485l-1.188-11.216c1.431-7.011 3.087-13.97 3.906-21.092.072-.576-.828-.57-.9 0-.801 6.967-2.394 13.79-3.816 20.647a.366.366 0 0 0-.099.319c0 .04.009.079.009.118-.27 1.31-.531 2.62-.774 3.933-1.53 8.093-1.755 16.123-1.44 24.336.324 8.49.297 17.095-.036 25.583-.324 8.188-1.467 16.228-4.392 24.328h-5.778c-1.008-37.8-4.707-74.85-6.714-112.198.945.564 2.214.881 3.087 1.238 2.016.83 4.068 1.452 6.183 2 4.077 1.058 8.316 1.444 12.51 1.548 4.185.103 8.514-.16 12.645-.962 2.34 8.244 1.98 17.012 1.161 25.661zm-2.232 93.512H252.464c-1.593 0-3.888-.12-5.166-1.254-.738-.649.252-.972.684-.995 2.241-.122 4.527-.79 6.696-1.297.936-.218 4.257-.59 4.644-1.759.279-.845.315-1.814.432-2.693.09-.678.171-1.365.252-2.043.018-.14.027-.239.036-.315l5.184-.96c.216 1.135.243 2.311.351 3.458a.522.522 0 0 0 .072.194c.279 2.135.522 4.504.486 6.661-.018 1.01.063 1.003-.99 1.003zm-21.15 0H231.305c-1.584 0-3.879-.12-5.166-1.254-.729-.649.261-.972.684-.995 2.394-.13 4.833-.848 7.146-1.403.999-.24 3.834-.545 4.23-1.764.315-.936.333-1.862.459-2.837.081-.61.153-1.648.225-1.648H244.211c.081 0 .18-.088.297-.082.171.394-.09 1.682-.072 2.204 0 .06.027.069.054.123.261 1.99.468 4.175.495 6.185.018 1.32.261 1.471-.99 1.471zm-31.698-188.39c-.045-1.875.891-3.976 1.791-5.83.009 3.605-.144 7.267 3.483 9.341 2.313 1.321 3.177-1.381 3.654-3.1.162-.604.288-1.219.459-1.825.243.52.351 1.072.342 1.658.063.753.072 1.517.126 2.272.099 1.459-1.368 3.242-1.953 4.54-.873 1.919-.234 3.681.342 5.6.639 2.131 1.404 4.23 2.187 6.312-2.034.31-4.014.815-5.85 1.768-.216.114-.576.297-.927.519-.234-2.54-.441-5.08-.576-7.625-.099-2.028.081-4.077-.324-6.073-.54-2.64-2.259-4.936-2.754-7.558zm3.294-14.393a57771.005 57771.005 0 0 0 17.055-1.51c1.089-.096 2.214-.322 2.43 1.113l1.377 9.48a.522.522 0 0 0-.063.33l1.269 7.42c-.648-.095-1.368-.217-1.953-.489a9368.934 9368.934 0 0 0-2.061-15.702c-.027-.228-.18-.47-.45-.45l-15.678 1.134c-.234.017-.468.193-.45.45.342 5.136.684 10.273 1.035 15.409-3.312-.87-3.177-5.476-3.141-8.781a.375.375 0 0 0 .063-.253c-.018-.317-.045-.634-.063-.951-.009-.177-.009-.35-.018-.51a.62.62 0 0 0-.036-.131c-.072-1.037-.153-2.074-.225-3.11-.081-1.073-.72-3.304.909-3.449zm10.971 26.135l-5.175.592a51.854 51.854 0 0 1-.468-1.633c-.639-2.453.531-4.13 1.62-6.286.864-1.712.522-3.76.198-5.588-.081-.457-.765-2.008-1.476-1.315-.954.919-.747 4.793-2.259 5.319-.288-4.242-.567-8.485-.855-12.726-.054-.772-.099-1.542-.153-2.313.027 0 .045.004.081.001l7.056-.51 7.101-.513.576-.041c.09.632.171 1.265.252 1.897.549 4.147 1.089 8.294 1.638 12.44-.495-.726-1.026-1.83-1.791-2.005-.144-.035-.333-.008-.432.116-.531.62-.243 1.75-.135 2.48.135.94.675 1.624 1.305 2.274-1.242.115-2.439.377-3.222 1.016-2.007 1.624-2.988 4.405-3.861 6.795zm-1.332 4.004l-2.646.236a61.78 61.78 0 0 1-.936-2.778c1.53-.174 3.051-.35 4.581-.524a60.002 60.002 0 0 0-.999 3.066zm-1.197 4.38c-.072-.31-.153-.62-.225-.93a.42.42 0 0 0-.108-.179c-.27-.718-.54-1.439-.81-2.163l2.061-.184a77.922 77.922 0 0 0-.918 3.457zm-7.83 3.866c-.045-.516-.09-1.035-.144-1.551a.935.935 0 0 1 .243-.273c1.575-1.217 3.618-1.754 5.526-2.155.099-.02.207-.059.333-.104a585.51 585.51 0 0 0-2.466 1.692c-1.161.797-2.331 1.595-3.492 2.391zm22.644-24.768c.612 1.477 1.26 2.95 1.791 4.46-1.179.037-2.349.073-3.528.125-.666.03-1.494.023-2.358.056a.413.413 0 0 0-.108-.2c-1.026-1.013-1.449-1.839-1.53-3.218.099.131.198.259.297.394.243.335.468.68.738.998.954 1.168 2.511 1.34 3.933 1.567.36.056.621-.195.558-.554-.378-2.229-.765-4.458-1.143-6.688.639.89.945 2.07 1.35 3.06zm3.492-1.518c-.639-1.728-.801-3.747-1.008-5.553-.342-3.068-.261-6.206-.162-9.295a.35.35 0 0 0 .036-.198c-.009-.196 0-.393-.009-.589.027-.664.234-1.612.09-2.281.063-.58.153-1.157.252-1.73 1.125 1.7 2.691 3.087 4.545 3.908-.855 3.192-.576 6.744 1.089 9.61.225.396.819.215.837-.226.045-1.751.252-3.52.738-5.204.171-.561.405-1.095.801-1.532 1.17-1.3 1.998 1.468 2.061 2.153.099 1.059-.27 4.697-2.223 2.942-.279-.249-.783-.094-.765.319.117 3.305.864 6.99 2.871 9.676 1.575 2.102 3.762 2.6 5.778 1.996.09 1.172.189 2.344.279 3.516.036.44.063.88.099 1.322 0 .028.009.042.009.066a104 104 0 0 1-1.908.081c-2.547.084-5.175.175-7.704-.233-1.539-.25-.963-.834-.792-2.13.198-1.475-.036-3.075-.324-4.552.9-.31 1.791-.645 2.673-.997.531-.212.297-1.083-.243-.867-.999.4-2.016.784-3.033 1.128-1.512.132-3.339.414-3.987-1.33zm2.736-30.445c3.177-1.688 6.669-1.277 9.576.706 1.71 1.172 5.031 4.047 4.257 6.327-.135.415.342.652.666.509 3.249-1.426 4.626 5.063 4.725 7.03.081 1.529-.18 3.137-.369 4.648-.495 4.016-1.359 8.305-3.537 11.772-.666 1.056-1.467 1.783-2.322 2.22-.135-1.592-.27-3.184-.423-4.774-.063-.572-.963-.578-.9 0 .162 1.701.315 3.404.45 5.108-2.214.604-4.608-.592-5.958-3.226-1.017-1.993-1.512-4.401-1.674-6.672 2.988 1.42 4.077-5.465 1.404-7.174-2.565-1.646-3.456 2.985-3.735 5.83-.918-2.447-.936-5.222-.189-7.727.072-.243-.054-.418-.225-.5-.036-.018-.054-.04-.09-.053-2.187-.847-3.951-2.631-5.022-4.706-.171-.338-.738-.27-.819.107-.09.424-.162.852-.243 1.282-.351-.961-.549-1.938.108-2.88-.018.053.135-.018.486 0l1.566.074 2.682.128c.585.028.576-.872 0-.9-1.485-.071-3.627-.611-5.058-.219-1.737.479-.765 4.143-.396 5.05.189.453.27.893.297 1.336-.009.177-.036.354-.036.53a14.099 14.099 0 0 1-1.278-3.226c-1.287-4.857 2.007-8.454 6.057-10.6zm29.178 62.984c-.099-4.903-.126-9.978-.936-14.83-.27-1.64-1.611-2.944-2.826-3.955-3.357-2.793-7.713-4.425-11.763-5.9a.374.374 0 0 0-.252-.005l-.324-4.186c1.053-.497 2.016-1.292 2.781-2.317 2.943-3.978 3.654-9.742 4.113-14.53.279-2.906-.621-11.754-5.13-10.758.126-2.349-2.511-4.725-4.086-6.022-2.871-2.365-6.381-3.028-9.9-1.83-4.221 1.439-7.947 5.078-8.091 9.68-.081 2.464.981 5.176 2.439 7.162-.054 1.728-.072 3.457-.054 5.186.036 3.304.045 7.443 1.44 10.502.468 1.043.972 1.42 2.079 1.544.738.082 1.503.015 2.241-.026.036.002.045 0 .072.002.108.616.189 1.238.261 1.86.063.601.018 1.167-.054 1.721-1.566.028-3.123.062-4.689.107v-.023c-.675-1.95-1.53-3.838-2.313-5.746-.522-1.268-.81-2.328-1.899-3.147-.504-3.429-.999-6.858-1.494-10.286-.216-1.465-1.656-1.388-2.754-1.29l-6.273.555-11.709 1.036c-1.746.155-1.53 1.885-1.44 3.14l.324 4.36c-1.098 2.32-2.709 5.216-2.619 7.794 0 .027.009.047.018.072 0 .017-.009.031 0 .048.432 2.422 1.908 4.661 2.61 7.02.657 2.186.36 4.671.477 6.937.135 2.63.351 5.258.603 7.88a1.167 1.167 0 0 0-.108.218c-.189.692.27 1.925.387 2.625.216 1.338.459 2.673.711 4.006.54 2.831 1.179 5.647 2.025 8.401.9 2.893 2.628 7.78 6.417 5.548 2.097-1.237 3.726-3.618 4.995-5.856-.018 5.955.261 11.91.63 17.85.144 2.386.315 4.771.504 7.153.036.513-.099 1.928.225 2.512a.474.474 0 0 0-.036.205c2.007 37.662 5.769 75.23 6.759 112.946 0 .26.189.396.387.423-.108 1.618.045 4.453-1.341 4.962-2.484.913-5.193 1.38-7.794 1.848-.963.174-2.799-.054-3.51.789-.909 1.082.225 2.368 1.197 2.793 1.881.826 4.113.867 6.129.867h7.731c1.431 0 3.411.158 4.806-.226 1.773-.489.297-7.34.144-8.474-.009-.03-.018-.103-.027-.129-.027-.97-.009-1.945-.18-2.904 0-.017-.018-.044-.018-.06 2.682-7.048 3.816-14.536 4.302-22.032.567-8.665.603-17.373.234-26.047-.369-9.017-.189-17.73 1.485-26.624l.081-.4c2.25 21.324 4.509 42.647 6.759 63.972.396 3.756.801 7.512 1.197 11.268 0 .006-.009.012-.009.017-.171 1.505.126 4.793-1.368 5.344-2.484.913-5.202 1.38-7.794 1.848-.963.174-2.808-.054-3.519.789-.909 1.081.234 2.367 1.197 2.793 1.881.825 4.122.867 6.138.867h8.154c1.125 0 3.447.265 4.482-.272.675-.346.549-1.624.567-2.228.036-2.108-.261-4.29-.549-6.374a.43.43 0 0 0-.045-.157c-.063-.794-.108-1.61-.198-2.406v-.021c1.134-5.35 1.989-10.77 2.709-16.188 1.179-8.848 2.232-18.225.684-27.09-2.241-12.882-2.565-26.078-1.422-39.094.792-8.957 1.287-17.894-1.125-26.47.108-.086.198-.228.18-.362-.639-5.786-1.287-11.573-1.926-17.359 1.593 1.265 4.275 1.794 5.913 1.06 1.314-.59 1.71-2.518 1.998-3.759 1.359-5.901 1.107-12.318.99-18.327z"/>
        <path fill="#D00F3B" d="M220.046 143.236a6.522 6.522 0 0 1 6.525 6.526 6.522 6.522 0 0 1-6.525 6.526 6.528 6.528 0 0 1-6.525-6.526 6.528 6.528 0 0 1 6.525-6.526M145.22 218.066c3.6 0 6.525 2.922 6.525 6.526a6.528 6.528 0 0 1-6.525 6.526 6.522 6.522 0 0 1-6.525-6.526 6.522 6.522 0 0 1 6.525-6.526M84.929 45.61a2.592 2.592 0 1 1 0 5.184 2.592 2.592 0 0 1 0-5.184M158.783 107.487c9.459 0 17.127 7.67 17.127 17.13 0 9.461-7.668 17.131-17.127 17.131s-17.136-7.67-17.136-17.13c0-9.461 7.677-17.131 17.136-17.131"/>
        <path fill="#002C3E" d="M143.285 127.913c-1.647.38-3.33.64-5.004.863-.279.036-.531.26-.432.57a58.646 58.646 0 0 1 1.008 3.936c.441 2.02 1.431 6.347-2.052 5.701.189-1.431.387-2.863.603-4.293.09-.568-.774-.812-.864-.24-.234 1.552-.45 3.105-.657 4.66a.485.485 0 0 0-.081.22c-.081.79-.171 1.578-.261 2.368-.513 3.898-1.008 7.797-1.62 11.683-.396 2.496-.828 4.99-1.341 7.465-.081.38-.162.76-.252 1.14-.108.487-.216.974-.333 1.46-.099.44-.207.878-.324 1.315l-.216.807a31.121 31.121 0 0 1-.693 2.18 9.699 9.699 0 0 1-.675 1.475c-.522.773-1.251 1.03-2.754.638-.027-.007-.054-.001-.081-.004-.324-.114-.621-.24-.882-.338-4.32-1.618-9.135-4.635-12.51-7.829a205.985 205.985 0 0 1 3.384-10.001c2.187 2.088 4.671 3.902 7.416 5.035a94.434 94.434 0 0 0-1.422 3.836c-.189.55.684.786.864.24.459-1.338.963-2.654 1.476-3.966a.632.632 0 0 0 .135-.204c1.602-4.383 3.555-8.648 5.094-13.05 1.773-5.09 2.304-10.54 3.051-15.848.072-.509 0-1.173.567-1.325.783-.208 1.674-.144 2.475-.13 2.241.038 4.509.313 6.714.73.513.097 1.071.2 1.575.39-.072.01-.18.047-.414.126-.486.167-.99.275-1.494.39zm-31.419 37.342c-1.467-.733-2.934-1.698-3.843-3.078.279-5.338 1.071-10.645 1.521-15.972.135-1.669.198-3.357.279-5.044 1.305 3.762 3.861 7.137 6.714 9.845.036.041.081.084.126.126-.063.028-1.548 3.875-1.71 4.35a185.904 185.904 0 0 0-1.746 5.312c-.468 1.48-.918 2.967-1.341 4.461zm-1.881 31.788a74.393 74.393 0 0 1-5.13-.247 68.812 68.812 0 0 1 1.089-4.654c.153-.56-.72-.798-.873-.24-.432 1.585-.792 3.19-1.134 4.8-5.445-.526-10.881-1.64-15.993-3.361-2.601-.877-5.112-2.01-7.461-3.434-.756-.456-2.412-1.4-3.537-2.41a1.423 1.423 0 0 1-.036-.19c-.036-.274-.261-.357-.468-.31-.396-.442-.657-.883-.648-1.29.135-6.582.999-13.244 2.286-19.703 3.996 6.504 8.928 12.45 13.095 18.845l.486.767a.82.82 0 0 0-.153.12c-1.134 1.106-2.484 2.746-1.188 4.15.702.764 1.962 1.424 2.808 2.043.675.492 1.278.824 2.097.977 1.125.209 3.321-.07 3.933-1.231 1.998-3.818-1.206-7.572-2.817-10.96-2.79-5.881-5.616-11.68-8.019-17.739-1.35-3.399-2.718-6.53-5.148-9.25-.387-.434-1.017.206-.63.637 1.179 1.328 2.007 2.508 2.808 4.102 2.502 4.978 4.266 10.311 6.642 15.353 2.097 4.433 4.329 8.796 6.471 13.208 1.314 2.73-.09 5.553-3.438 4.93-1.071-.2-2.007-1.252-2.853-1.891-1.89-1.43-.963-2.849.369-4.077.153-.135.171-.378.072-.546-4.374-7.257-10.035-13.642-14.364-20.943-1.395-2.358-2.691-4.795-3.753-7.323-.612-1.47-1.71-3.757-.873-5.303 1.341-2.46 3.87-4.597 6.165-6.499.936 4.272 4.014 8.319 6.777 11.453.162.183.477.167.639 0 2.349-2.407 4.77-4.726 7.326-6.92 2.052-1.763 4.428-3.285 6.066-5.463 2.637-3.5 2.277-8.3-2.043-10.024-1.602-.641-3.519-.32-5.4.364 1.881-1.857 3.906-3.51 6.147-4.932.189.338.378.676.594.99.135.194.288.368.423.553.189.243.378.491.576.721.126.139.261.264.387.396.567.59 1.179 1.148 1.845 1.653 1.314.993 2.835 1.655 4.383 2.189.144.047.279.074.414.095.405.127.819.23 1.242.332a.63.63 0 0 1 .063.346c-.27 6.72-.909 13.43-1.719 20.104a79.071 79.071 0 0 0-.423 5.062v.03c-.288 5.59-.018 11.23.396 16.783.441 5.98 1.044 12.102 2.502 17.937zm-9.072 24.293c-.639 7.66-1.26 15.268-2.358 22.875-2.025 14.148-3.42 28.4-4.923 42.613a162.351 162.351 0 0 0-.261 2.409c-.09.009-.18.014-.27.022-.396-.078-1.152.088-1.494.112l-.09.004c-.414.023-.837.018-1.251.023-3.195-7.684-3.528-16.689-3.528-24.893 0-3.734.162-7.496.675-11.197.423-3.009 1.647-5.725 2.457-8.634.954-3.423.882-6.899.387-10.392-.711-4.94-2.016-9.68-2.457-14.674-.549-6.348-.621-12.795-.324-19.16.027-.581-.873-.578-.9 0a149.581 149.581 0 0 0 .324 19.16c.738 9.001 4.437 17.63 1.575 26.58-.846 2.637-1.692 5.028-2.052 7.784-.504 3.867-.603 7.794-.585 11.689.045 7.832.522 16.363 3.474 23.734-.423-.02-.954-.045-1.431-.054-.153-.009-.297-.013-.45-.025-.279-.024-.558-.046-.837-.08-.036-1.258-.369-2.602-.576-3.856l-.297-2.186c-.108-.821-.225-1.643-.324-2.466-.117-.925-.216-1.85-.324-2.777-.108-.943-.216-1.886-.315-2.83-.036-.337-.063-.674-.099-1.01-.063-.652-.126-1.305-.18-1.959-.045-.581-.099-1.162-.144-1.743-.027-.347-.045-.695-.072-1.043-.27-3.974-.405-7.953-.36-11.934.099-4.635.504-9.245.729-13.882.036-.76.045-1.516.036-2.27a45.894 45.894 0 0 0-.126-4.16c-.603-7.26-2.133-14.529-3.285-21.729l-1.512-9.73-2.619-16.996c.297.22.594.424.837.609 2.385 1.777 5.004 3.108 7.758 4.21 5.625 2.253 11.853 3.562 18.036 4.134-1.566 7.801-2.178 15.84-2.844 23.722zm-5.211 72.891c2.754.861 5.49 1.753 8.208 2.716 2.169.77 5.274 1.482 6.975 3.138-.063-.062-.864.072-1.413.125-1.035.1-2.079.136-3.114.173-3.015.105-6.021.1-9.036.087-4.05-.017-8.1-.08-12.159-.18-.018-.877.009-1.753.072-2.626.072-.985.252-1.945.522-2.892.288-1.004.288-1.218 1.161-1.052l.018.002c.378.068.756.117 1.134.153.144.013.288.021.432.03.297.02.594.033.891.037l.216.003c.774.002 1.557-.038 2.331-.113.063-.006.126-.009.189-.014 1.431-.127 2.223-.01 3.573.413zm-9.036-1.505c.126-.8.009-1.765-.036-2.594.081.01.162.015.243.023 1.017.105 2.034.168 3.051.166h.054c.009 0 .009-.003.018-.003a37.249 37.249 0 0 0 3.303-.177c-.063.884-.135 1.768-.198 2.653-.054.007-.099.014-.153.02-2.07-.06-4.167.336-6.282-.088zm-6.237-149.288a65.487 65.487 0 0 1 8.721-5.683c2.25-1.23 4.734-2.419 7.326-2.66 3.672-.34 5.499 3.066 4.653 6.267-.801 3.071-3.546 4.848-5.85 6.747-2.835 2.34-5.517 4.845-8.1 7.46-.324.328.234.871-.225.336a45.842 45.842 0 0 1-2.997-3.978c-1.458-2.151-2.889-4.608-3.375-7.212.243-.197.477-.395.702-.588.441-.377-.198-1.01-.639-.636-.063.057-.126.114-.198.172a1.88 1.88 0 0 1-.018-.225zm24.876-20.382c.459-.693 2.664-3.484 2.178-4.302-.306-.524-.531-1.086-.729-1.66l-.135-.525c-.405-1.14.09-1.927 1.476-2.36.72.941.522 2.455.297 3.497-.081.4.306.684.666.508 3.141-1.536 5.328-4.68 5.976-8.063.108-.568-.756-.81-.864-.24-.549 2.875-2.259 5.518-4.761 7.065.171-1.627-.054-3.61-1.737-4.15-1.647-.528-2.178 2.465-2.016 3.431.162.968.468 1.85.918 2.718.288.558-1.998 3.553-2.43 4.207-.189.278-.387.571-.585.87.171-1.94-.099-4.014-.297-5.838-.279-2.537-3.177-13.47 2.268-12.512.36.063.612-.2.558-.554-.432-2.746.918-4.601 3.015-5.432a3.58 3.58 0 0 0-1.017 2.232c-.036.47.621.581.846.227 2.691-4.293 8.802-.014 11.799 1.347 1.755.801 4.032 1.591 6.174 1.675a14.31 14.31 0 0 1-1.161.358c-.423.11-.441.771 0 .868 1.782.39 3.618.283 5.373-.115-1.917 2.465-4.716 4.5-7.848 4.716-.486.034-.639.76-.126.884.855.202 1.71.209 2.565.088a9.775 9.775 0 0 1-3.024.977c.009-.032.018-.063.018-.095.099-.567-.774-.81-.864-.239l-.081.438c-.693.043-1.386.02-2.07-.078-.567-.081-.81.787-.234.868.711.101 1.431.128 2.151.098a130.96 130.96 0 0 1-1.881 8.933c-.504 1.981-1.053 4.006-1.962 5.844-1.044 2.112-3.447 1.04-5.274-.18-.018-.03-.036-.062-.072-.091-1.521-1.28-2.646-2.87-3.483-4.666-.252-.524-1.026-.067-.783.455a15.297 15.297 0 0 0 2.232 3.447c-.018.048-.045.092-.054.152-.324 2.682-.648 5.364-.981 8.046-3.879-.955-7.326-3.012-9.297-6.552 2.196-1.474 3.843-4.175 5.256-6.297zm40.923 3.913c-.918-.978-3.276-1.007-4.491-1.17-2.385-.32-4.905-.64-7.308-.302-1.467.206-1.368 1.465-1.53 2.685-.441 3.245-.873 6.484-1.521 9.696-.864 4.25-2.457 8.28-4.077 12.296a.45.45 0 0 0-.144.186 387.76 387.76 0 0 0-1.197 3.076c-.324.82-.648 1.64-.981 2.46-2.826-1.159-5.373-3.1-7.587-5.302-.009-.008-.009-.022-.018-.029-.117-.109-.234-.229-.351-.34a43.887 43.887 0 0 1-2.079-2.289.381.381 0 0 0-.207-.13c-2.286-2.721-4.086-5.937-4.707-9.359-.009-.031-.027-.05-.036-.077a65.7 65.7 0 0 1 .18-1.902c.315-2.594.639-5.187.954-7.782 1.62 1.202 4.167 2.749 5.976 2.138 1.323-.446 1.908-2.619 2.313-3.753 1.53-4.222 2.367-8.756 3.114-13.19 2.151-.267 4.221-1.133 5.814-2.67.306-.296-.009-.92-.441-.752-.108.044-.225.084-.342.125 2.034-1.14 3.771-2.884 5.04-4.805.216-.33-.144-.773-.513-.661-1.35.413-2.781.667-4.212.643a6.558 6.558 0 0 0 1.476-.902c.36-.298-.027-.86-.432-.752-4.734 1.265-9.333-2.64-13.446-4.144-1.692-.619-3.861-.664-5.535.175.63-.524 1.485-.822 2.331-.938.513-.07.36-.87-.126-.884-4.104-.126-7.317 2.29-6.993 6.445-3.645-.227-3.834 3.826-3.645 6.838.279 4.474 2.142 9.581.855 14.042-.009.043-.009.079-.009.117-.909 1.219-1.944 2.374-3.141 3.072-2.862 1.774-5.409 3.896-7.722 6.352a.405.405 0 0 0-.117.356c-1.503.71-2.889 1.541-3.987 2.164a66.667 66.667 0 0 0-7.695 5.167.322.322 0 0 0-.108.104c-.108.118-.126.252-.072.374.018.345.054.688.099 1.03-2.169 1.867-4.347 3.839-6.075 6.085-2.007 2.592-.621 5.347.576 8.083.981 2.231 2.115 4.365 3.348 6.442a.383.383 0 0 0-.144.237c-1.359 6.707-2.25 13.639-2.421 20.484-.018.807.522 1.513 1.197 2.126 2.142 13.91 4.284 27.82 6.462 41.726.846 5.38 1.413 10.488 1.062 15.934-.396 6.212-.774 12.367-.549 18.599.135 3.775.441 7.544.819 11.302.243 2.46.54 4.914.864 7.365.297 2.237.963 4.628.963 6.876 0 .952.27 2.36-.018 3.265-1.512 2.13-1.539 5.317-1.422 7.825 0 .105.036.184.09.25a.424.424 0 0 0 .36.2c4.194.107 8.397.169 12.6.19 3.015.016 6.021.007 9.036-.087 1.53-.049 3.447.085 4.914-.478 1.17-.448.171-1.485-.432-1.884-2.106-1.393-4.779-2.162-7.137-2.998-2.763-.98-5.562-1.872-8.361-2.746a7.633 7.633 0 0 0-1.233-.268.334.334 0 0 0-.117-.127l.243-3.132c.936-12.38 2.628-24.771 4.131-37.093.765-6.206 1.827-12.372 2.403-18.598.945-10.295 1.521-20.625 2.997-30.865.261-1.804.549-3.606.9-5.397 1.98.16 3.951.25 5.895.265a.454.454 0 0 0 .432-.57c-2.736-10.463-3.258-21.933-3.069-32.698.009-.378.027-.755.045-1.133 1.08 1.184 2.538 2.06 3.951 2.724.261.122.576.03.657-.27.315-1.128.648-2.252.99-3.374 3.537 3.238 8.199 5.959 12.564 7.75 1.332.548 3.267 1.197 4.347-.102.711-.857 1.107-2.02 1.44-3.114a35.964 35.964 0 0 0 1.044-3.659c1.89-7.253 2.736-14.918 3.546-22.353.054-.424.108-.848.171-1.272 5.526 1.06 3.15-7.103 2.178-10.297 2.106-.307 8.541-1.388 7.371-2.621z"/>
        <path stroke="#D00F3B" d="M17.046 62.342a3.78 3.78 0 1 0-2.53-7.123 3.78 3.78 0 0 0 2.53 7.123z"/>
    </g>
</svg>
